<svg width="27" height="27" viewBox="0 0 27 27" fill="none" xmlns="http://www.w3.org/2000/svg">
<g clip-path="url(#clip0_1203_4239)">
<path d="M11.9048 10.2572C11.8835 10.3787 11.8126 10.4576 11.6831 10.4576C11.5536 10.4576 11.4747 10.3787 11.4534 10.259C11.4495 10.2374 11.4457 10.2162 11.4419 10.1952C11.1632 8.64526 11.1599 8.62688 9.49033 8.28964C9.3626 8.2666 9.28369 8.18945 9.28369 8.05996C9.28369 7.93222 9.36435 7.85156 9.49209 7.83203C11.1272 7.52012 11.1358 7.47665 11.4232 6.01738C11.4329 5.96804 11.443 5.91709 11.4534 5.86445C11.4747 5.74297 11.5536 5.66406 11.6831 5.66406C11.8126 5.66406 11.8835 5.74297 11.9048 5.86621C11.9149 5.91601 11.9246 5.96428 11.9341 6.01108C12.227 7.46216 12.2348 7.50091 13.8759 7.83203C13.9974 7.85332 14.0825 7.93222 14.0825 8.05996C14.0825 8.18945 13.9974 8.2666 13.8706 8.28964C12.1996 8.60225 12.1935 8.63636 11.912 10.217L11.9048 10.2572Z" fill="white" fill-opacity="0.23" style="mix-blend-mode:lighten"/>
<path d="M11.9048 10.2572C11.8835 10.3787 11.8126 10.4576 11.6831 10.4576C11.5536 10.4576 11.4747 10.3787 11.4534 10.259C11.4495 10.2374 11.4457 10.2162 11.4419 10.1952C11.1632 8.64526 11.1599 8.62688 9.49033 8.28964C9.3626 8.2666 9.28369 8.18945 9.28369 8.05996C9.28369 7.93222 9.36435 7.85156 9.49209 7.83203C11.1272 7.52012 11.1358 7.47665 11.4232 6.01738C11.4329 5.96804 11.443 5.91709 11.4534 5.86445C11.4747 5.74297 11.5536 5.66406 11.6831 5.66406C11.8126 5.66406 11.8835 5.74297 11.9048 5.86621C11.9149 5.91601 11.9246 5.96428 11.9341 6.01108C12.227 7.46216 12.2348 7.50091 13.8759 7.83203C13.9974 7.85332 14.0825 7.93222 14.0825 8.05996C14.0825 8.18945 13.9974 8.2666 13.8706 8.28964C12.1996 8.60225 12.1935 8.63636 11.912 10.217L11.9048 10.2572Z" fill="#545454" style="mix-blend-mode:color-dodge"/>
<path d="M18.1066 10.3129C17.506 9.57751 16.3825 9.57751 15.7824 10.3129L8.78333 18.8864C7.98353 19.8661 8.68079 21.3348 9.94544 21.3348H23.9435C25.2081 21.3348 25.9054 19.8661 25.1056 18.8864L18.1066 10.3129Z" fill="white" fill-opacity="0.23" style="mix-blend-mode:lighten"/>
<path d="M18.1066 10.3129C17.506 9.57751 16.3825 9.57751 15.7824 10.3129L8.78333 18.8864C7.98353 19.8661 8.68079 21.3348 9.94544 21.3348H23.9435C25.2081 21.3348 25.9054 19.8661 25.1056 18.8864L18.1066 10.3129Z" fill="#545454" style="mix-blend-mode:color-dodge"/>
<path d="M2.13978 19.5404H7.2555C7.28431 19.2726 7.35413 19.0048 7.47035 18.746C7.56605 18.5321 7.693 18.3243 7.85365 18.1276L11.1661 14.0702L8.63392 11.0775C8.15638 10.5131 7.26234 10.5131 6.7848 11.0775L1.21497 17.6603C0.578744 18.4125 1.13343 19.5404 2.13978 19.5404Z" fill="white" fill-opacity="0.23" style="mix-blend-mode:lighten"/>
<path d="M2.13978 19.5404H7.2555C7.28431 19.2726 7.35413 19.0048 7.47035 18.746C7.56605 18.5321 7.693 18.3243 7.85365 18.1276L11.1661 14.0702L8.63392 11.0775C8.15638 10.5131 7.26234 10.5131 6.7848 11.0775L1.21497 17.6603C0.578744 18.4125 1.13343 19.5404 2.13978 19.5404Z" fill="#545454" style="mix-blend-mode:color-dodge"/>
</g>
<defs>
<clipPath id="clip0_1203_4239">
<rect width="26" height="26" fill="white" transform="translate(0.195312 0.5)"/>
</clipPath>
</defs>
</svg>
